<?xml version="1.0" encoding="utf-8"?>
<!-- Generator: Adobe Illustrator 23.0.1, SVG Export Plug-In . SVG Version: 6.00 Build 0)  -->
<svg version="1.1" xmlns="http://www.w3.org/2000/svg" xmlns:xlink="http://www.w3.org/1999/xlink" x="0px" y="0px"
	 viewBox="0 0 2000 2000" style="enable-background:new 0 0 2000 2000;" xml:space="preserve">
<style type="text/css">
	.st0{fill:#FBF7F4;}
	.st1{fill:#E8C481;}
	.st2{fill:#B1BBAB;}
	.st3{fill:#C88C7C;}
	.st4{fill:#9C685D;}
	.st5{fill:#C8D2C6;}
	.st6{fill:#774D46;}
	.st7{fill:none;stroke:#3B3630;stroke-width:2;stroke-linecap:round;stroke-linejoin:round;stroke-miterlimit:10;}
	.st8{fill:#3B3630;}
	.st9{fill:none;stroke:#3B3630;stroke-linecap:round;stroke-linejoin:round;stroke-miterlimit:10;}
	.st10{fill:#F3D2A6;}
	.st11{fill:#B55046;}
	.st12{fill:#F6E8D2;}
	.st13{fill:#C8AF95;}
	.st14{fill:none;stroke:#C8AF95;stroke-width:2;stroke-miterlimit:10;stroke-dasharray:20;}
	.st15{fill:none;stroke:#B55046;stroke-width:10;stroke-linecap:round;stroke-linejoin:round;stroke-miterlimit:10;}
	.st16{fill:none;stroke:#C88C7C;stroke-width:4;stroke-miterlimit:10;}
	.st17{fill:none;stroke:#C88C7C;stroke-width:10;stroke-miterlimit:10;}
	.st18{opacity:0.59;}
	.st19{fill:none;stroke:#B55046;stroke-width:2;stroke-miterlimit:10;}
	.st20{fill:none;stroke:#B55046;stroke-width:2;stroke-miterlimit:10;stroke-dasharray:21.1473,21.1473;}
	.st21{fill:none;stroke:#B55046;stroke-width:2;stroke-miterlimit:10;stroke-dasharray:22.1753,22.1753;}
	.st22{fill:none;stroke:#B55046;stroke-width:2;stroke-miterlimit:10;stroke-dasharray:24.2983,24.2983;}
	.st23{fill:none;stroke:#B55046;stroke-width:2;stroke-miterlimit:10;stroke-dasharray:18.1581,18.1581;}
	.st24{fill:none;stroke:#B55046;stroke-width:2;stroke-miterlimit:10;stroke-dasharray:20.1047,20.1047;}
	.st25{fill:none;stroke:#B55046;stroke-width:2;stroke-miterlimit:10;stroke-dasharray:19.0183,19.0183;}
	.st26{fill:none;stroke:#B55046;stroke-width:2;stroke-miterlimit:10;stroke-dasharray:20.0672,20.0672;}
	.st27{fill:none;stroke:#B55046;stroke-width:2;stroke-miterlimit:10;stroke-dasharray:20.4888,20.4888;}
	.st28{fill:none;stroke:#B55046;stroke-width:2;stroke-miterlimit:10;stroke-dasharray:19.7985,19.7985;}
	.st29{fill:none;stroke:#9C685D;stroke-width:6;stroke-linejoin:bevel;stroke-miterlimit:10;}
	.st30{fill:none;stroke:#9C685D;stroke-width:4;stroke-linejoin:round;stroke-miterlimit:10;}
	.st31{fill:none;stroke:#3B3630;stroke-width:2;stroke-miterlimit:10;}
	.st32{fill:none;stroke:#3B3630;stroke-width:4;stroke-linecap:round;stroke-linejoin:round;stroke-miterlimit:10;}
	.st33{fill:none;stroke:#9C685D;stroke-width:2;stroke-linecap:round;stroke-linejoin:round;stroke-miterlimit:10;}
	.st34{fill:none;stroke:#9C685D;stroke-width:2;stroke-linejoin:round;stroke-miterlimit:10;}
	.st35{fill:none;stroke:#774D46;stroke-linecap:round;stroke-linejoin:round;stroke-miterlimit:10;}
	.st36{fill:#2B2326;}
	.st37{fill:none;stroke:#231F20;stroke-linecap:round;stroke-linejoin:round;stroke-miterlimit:10;}
	.st38{fill:none;stroke:#B55046;stroke-width:2;stroke-miterlimit:10;stroke-dasharray:20.767,20.767;}
	.st39{fill:none;stroke:#B55046;stroke-width:2;stroke-miterlimit:10;stroke-dasharray:20.297,20.297;}
	.st40{fill:none;stroke:#B55046;stroke-width:2;stroke-miterlimit:10;stroke-dasharray:19.6424,19.6424;}
	.st41{fill:none;stroke:#B55046;stroke-width:2;stroke-miterlimit:10;stroke-dasharray:19.3519,19.3519;}
	.st42{fill:none;stroke:#B55046;stroke-width:2;stroke-miterlimit:10;stroke-dasharray:20.2725,20.2725;}
	.st43{fill:none;stroke:#3C2415;stroke-width:2;stroke-miterlimit:10;}
	.st44{fill:none;stroke:#3C2415;stroke-width:4;stroke-linecap:round;stroke-linejoin:round;stroke-miterlimit:10;}
	.st45{fill:#3C2415;}
	.st46{fill:#594A42;}
	.st47{fill:#F59C6F;}
	.st48{fill:#A26C60;}
	.st49{fill:none;stroke:#C88C7C;stroke-width:4;stroke-linecap:round;stroke-linejoin:round;stroke-miterlimit:10;}
	.st50{fill:none;stroke:#E9D0CB;stroke-width:6;stroke-miterlimit:10;}
	.st51{fill:none;stroke:#B1BBAB;stroke-width:6;stroke-linecap:round;stroke-linejoin:round;stroke-miterlimit:10;}
	.st52{fill:none;stroke:#E8C481;stroke-linecap:round;stroke-linejoin:round;stroke-miterlimit:10;}
	.st53{fill:none;stroke:#C88C7C;stroke-width:2;stroke-linecap:round;stroke-linejoin:round;stroke-miterlimit:10;}
	.st54{opacity:0.6;}
	.st55{fill:none;stroke:#FBF7F4;stroke-width:2;stroke-linecap:round;stroke-linejoin:round;}
	.st56{fill:none;stroke:#FBF7F4;stroke-width:2;stroke-linecap:round;stroke-linejoin:round;stroke-dasharray:19.2321,19.2321;}
	.st57{fill:none;stroke:#FBF7F4;stroke-width:2;stroke-linecap:round;stroke-linejoin:round;stroke-dasharray:19.1211,19.1211;}
	.st58{fill:none;stroke:#FBF7F4;stroke-width:2;stroke-linecap:round;stroke-linejoin:round;stroke-dasharray:12.2792,12.2792;}
	.st59{fill:none;stroke:#FBF7F4;stroke-width:2;stroke-linecap:round;stroke-linejoin:round;stroke-dasharray:13.653,13.653;}
	.st60{fill:none;stroke:#FBF7F4;stroke-width:2;stroke-linecap:round;stroke-linejoin:round;stroke-dasharray:19.4864,19.4864;}
	.st61{fill:none;stroke:#FBF7F4;stroke-width:2;stroke-linecap:round;stroke-linejoin:round;stroke-dasharray:18.6546,18.6546;}
	.st62{fill:none;stroke:#FBF7F4;stroke-width:2;stroke-linecap:round;stroke-linejoin:round;stroke-dasharray:18.7672,18.7672;}
	.st63{fill:none;stroke:#FBF7F4;stroke-width:2;stroke-linecap:round;stroke-linejoin:round;stroke-dasharray:21.2841,21.2841;}
	.st64{fill:none;stroke:#FBF7F4;stroke-width:2;stroke-linecap:round;stroke-linejoin:round;stroke-dasharray:24.9845,24.9845;}
	.st65{fill:none;stroke:#FBF7F4;stroke-width:2;stroke-linecap:round;stroke-linejoin:round;stroke-dasharray:14.1347,14.1347;}
	.st66{fill:none;stroke:#FBF7F4;stroke-width:2;stroke-linecap:round;stroke-linejoin:round;stroke-dasharray:20.1378,20.1378;}
	.st67{fill:none;stroke:#FBF7F4;stroke-width:2;stroke-linecap:round;stroke-linejoin:round;stroke-dasharray:21.976,21.976;}
	.st68{fill:none;stroke:#FBF7F4;stroke-width:2;stroke-linecap:round;stroke-linejoin:round;stroke-dasharray:21.826,21.826;}
	.st69{fill:none;stroke:#FBF7F4;stroke-width:2;stroke-linecap:round;stroke-linejoin:round;stroke-dasharray:24.0717,24.0717;}
	
		.st70{opacity:0.6;fill:none;stroke:#FBF7F4;stroke-width:2;stroke-linecap:round;stroke-linejoin:round;stroke-miterlimit:10;stroke-dasharray:20;}
	.st71{fill:none;stroke:#F3D2A6;stroke-width:3;stroke-miterlimit:10;stroke-dasharray:12;}
	.st72{fill:none;stroke:#E9D0CB;stroke-width:4;stroke-miterlimit:10;}
	.st73{fill:none;stroke:#3B3630;stroke-width:3;stroke-linecap:round;stroke-linejoin:round;stroke-miterlimit:10;}
	
		.st74{fill:none;stroke:#F6E8D2;stroke-width:4;stroke-linecap:round;stroke-linejoin:round;stroke-miterlimit:10;stroke-dasharray:20;}
	.st75{fill:none;stroke:#3B3630;stroke-width:10;stroke-linecap:round;stroke-linejoin:round;stroke-miterlimit:10;}
	.st76{fill:#949B8F;}
	.st77{fill:none;stroke:#FBF7F4;stroke-width:4;stroke-linecap:round;stroke-linejoin:round;}
	.st78{fill:none;stroke:#FBF7F4;stroke-width:4;stroke-linecap:round;stroke-linejoin:round;stroke-dasharray:19.5394,19.5394;}
	.st79{fill:none;stroke:#FBF7F4;stroke-width:4;stroke-linecap:round;stroke-linejoin:round;stroke-dasharray:22.2978,22.2978;}
	.st80{fill:none;stroke:#FBF7F4;stroke-width:4;stroke-linecap:round;stroke-linejoin:round;stroke-dasharray:25.1819,25.1819;}
	.st81{fill:none;stroke:#FBF7F4;stroke-width:4;stroke-linecap:round;stroke-linejoin:round;stroke-dasharray:19.5294,19.5294;}
	.st82{fill:none;stroke:#FBF7F4;stroke-width:4;stroke-linecap:round;stroke-linejoin:round;stroke-dasharray:18.8621,18.8621;}
	.st83{fill:none;stroke:#FBF7F4;stroke-width:4;stroke-linecap:round;stroke-linejoin:round;stroke-dasharray:12.1397,12.1397;}
	.st84{fill:none;stroke:#FBF7F4;stroke-width:4;stroke-linecap:round;stroke-linejoin:round;stroke-dasharray:16.0387,16.0387;}
	.st85{fill:none;stroke:#FBF7F4;stroke-width:4;stroke-linecap:round;stroke-linejoin:round;stroke-dasharray:20.2534,20.2534;}
	.st86{fill:none;stroke:#FBF7F4;stroke-width:4;stroke-linecap:round;stroke-linejoin:round;stroke-dasharray:19.5395,19.5395;}
	.st87{fill:none;stroke:#3B3630;stroke-width:2;stroke-linejoin:round;stroke-miterlimit:10;}
	.st88{fill:none;stroke:#3B3630;stroke-width:5;stroke-linecap:round;stroke-linejoin:round;stroke-miterlimit:10;}
	.st89{fill:none;stroke:#3B3630;stroke-width:4;stroke-linecap:round;stroke-linejoin:round;}
	.st90{fill:none;stroke:#3B3630;stroke-width:4;stroke-linecap:round;stroke-linejoin:round;stroke-dasharray:11.9064,11.9064;}
	.st91{fill:none;stroke:#3B3630;stroke-width:4;stroke-linecap:round;stroke-linejoin:round;stroke-dasharray:12.0524,12.0524;}
	.st92{fill:none;stroke:#3B3630;stroke-width:4;stroke-linecap:round;stroke-linejoin:round;stroke-dasharray:12.1179,12.1179;}
	.st93{fill:none;stroke:#3B3630;stroke-width:4;stroke-linecap:round;stroke-linejoin:round;stroke-dasharray:12.231,12.231;}
	.st94{fill:none;stroke:#3B3630;stroke-width:4;stroke-linecap:round;stroke-linejoin:round;stroke-dasharray:12.0557,12.0557;}
	.st95{fill:none;stroke:#9C685D;stroke-width:4;stroke-linecap:round;stroke-linejoin:round;stroke-miterlimit:10;}
	.st96{fill:none;stroke:#3B3630;stroke-width:16;stroke-miterlimit:10;}
	.st97{fill:none;stroke:#3B3630;stroke-miterlimit:10;}
	
		.st98{fill:none;stroke:#F59C6F;stroke-width:4;stroke-linecap:round;stroke-linejoin:round;stroke-miterlimit:10;stroke-dasharray:20;}
	.st99{fill:#C49A6C;}
	.st100{opacity:0.48;fill:#F6E8D2;}
	.st101{fill:none;stroke:#B55046;stroke-miterlimit:10;}
	.st102{fill:none;stroke:#B55046;stroke-miterlimit:10;stroke-dasharray:11.968,11.968;}
	.st103{fill:none;stroke:#231F20;stroke-width:2;stroke-linecap:round;stroke-linejoin:round;stroke-miterlimit:10;}
	.st104{fill:#9FAF9E;}
	.st105{opacity:0.5;fill:#F6E8D2;}
	.st106{fill:none;stroke:#F59C6F;stroke-width:2;stroke-linecap:round;stroke-linejoin:round;}
	.st107{fill:none;stroke:#F59C6F;stroke-width:2;stroke-linecap:round;stroke-linejoin:round;stroke-dasharray:22.8786,22.8786;}
	.st108{fill:none;stroke:#F59C6F;stroke-width:2;stroke-linecap:round;stroke-linejoin:round;stroke-dasharray:17.346,17.346;}
	.st109{fill:none;stroke:#F59C6F;stroke-width:2;stroke-linecap:round;stroke-linejoin:round;stroke-dasharray:19.4767,19.4767;}
	.st110{fill:none;stroke:#F59C6F;stroke-width:2;stroke-linecap:round;stroke-linejoin:round;stroke-dasharray:16.9896,16.9896;}
	.st111{fill:none;stroke:#F59C6F;stroke-width:2;stroke-linecap:round;stroke-linejoin:round;stroke-dasharray:20.5872,20.5872;}
	.st112{fill:none;stroke:#F59C6F;stroke-width:2;stroke-linecap:round;stroke-linejoin:round;stroke-dasharray:22.6448,22.6448;}
	.st113{fill:none;stroke:#F59C6F;stroke-width:2;stroke-linecap:round;stroke-linejoin:round;stroke-dasharray:20.3178,20.3178;}
	.st114{fill:none;stroke:#F59C6F;stroke-width:2;stroke-linecap:round;stroke-linejoin:round;stroke-dasharray:18.0193,18.0193;}
	.st115{fill:none;stroke:#F59C6F;stroke-width:2;stroke-linecap:round;stroke-linejoin:round;stroke-dasharray:22.915,22.915;}
	.st116{fill:none;stroke:#F59C6F;stroke-width:2;stroke-linecap:round;stroke-linejoin:round;stroke-dasharray:21.71,21.71;}
	.st117{fill:none;stroke:#F59C6F;stroke-width:2;stroke-linecap:round;stroke-linejoin:round;stroke-dasharray:25.0579,25.0579;}
	.st118{fill:none;stroke:#F59C6F;stroke-width:2;stroke-linecap:round;stroke-linejoin:round;stroke-dasharray:20.0432,20.0432;}
	.st119{fill:#BAA695;}
</style>
<g id="_x31_2">
</g>
<g id="_x31_1">
</g>
<g id="_x31_0">
</g>
<g id="_x30_9">
</g>
<g id="_x30_8">
</g>
<g id="_x30_7">
</g>
<g id="_x30_6">
</g>
<g id="_x30_5">
	<path class="st0" d="M1013.35,466.1c96.29,26.12,196.65-28.79,225.1-124.42c0.43-1.44,0.85-2.9,1.27-4.38
		c39.73-141.49,253.39-215.02,417.1-101.75c123.71,85.59,159.19,270.8,2.68,422.41s-126.81,265.41-117.64,291.28
		c9.17,25.87,160.18,266.14,19.31,388.89c-77.45,67.48-223.07,95.36-416.67-35.49c-232.17-156.93-400.03-308.99-609.37-122.9
		c-116.29,103.38-341.49,82.13-405.74-39.15c-76.68-144.74,61.74-256.95,206.52-248.98s246.57-42.1,252.43-189.34
		c2.14-53.69,0.66-331.26,227.06-313.08C932.77,398.62,969.3,454.15,1013.35,466.1z"/>
	<g>
		<path class="st6" d="M510.18,1254.77H331.84c0,0-155.13,0-161.24,110.34c-5.99,108.14,94.06,114.41,94.06,114.41
			s-9.77,79.4,108.71,79.4s255.3,0,255.3,0l291.94-288.28L510.18,1254.77z"/>
		<path class="st7" d="M264.61,1478.77c0,0-25.24-114.41,130.29-114.41"/>
		<path class="st4" d="M634.87,1307.29H456.53c0,0-155.13,0-161.24,110.34c-5.99,108.14,94.06,114.41,94.06,114.41
			s-9.77,79.4,108.71,79.4s255.3,0,255.3,0l291.94-288.28L634.87,1307.29z"/>
		<path class="st6" d="M761.53,1538.35c26.62,2.18,49.48,0.87,69.09-3.19L936,1431.1c9.58-38.83,7.54-80.7,3.35-112.03
			l-304.48-11.78C634.87,1307.29,510.37,1517.76,761.53,1538.35z"/>
		<path class="st11" d="M542.15,923.06c0,0,244.05-55.65,357.79-79.94l-154.45,98.94L542.15,923.06z"/>
		<path class="st4" d="M1589.69,1137.5c-46.97-111.9-276.7-112.9-345.36-110.63c-15.76,0.52-31.54-0.01-47.22-1.63
			c-67.48-6.99-150.08-21.62-200.26-52.24c-96.09-58.63-130.29-99.35-135.18-133.55c-4.89-34.2-301.31,48.86-301.31,48.86v309.45
			c0,0-10.88,198.78,162.31,205.29c135.23,5.09,444.85,15.14,574.11,19.3l13.17,47.4h240.56
			C1550.52,1469.75,1645.06,1269.42,1589.69,1137.5z"/>
		<path class="st6" d="M560.36,1169.93c50.93-3.05,160.68-31.29,160.68-161.06c0-56.88-73.95-131.78-160.68-95.59V1169.93z"/>
		<path class="st6" d="M1598.29,1319.73c-52.36-26.17-199.47-82.36-246.88,83.32c-8.46,29.55-6.85,51.22,2.04,66.7h197.07
			C1550.52,1469.75,1582.39,1402.21,1598.29,1319.73z"/>
		<path class="st6" d="M568.69,663.56V481.1c0-6.64,7.53-10.51,12.91-6.61c35.03,25.36,129.92,104.07,140.37,218.91
			C734.81,834.57,568.69,663.56,568.69,663.56z"/>
		<path class="st4" d="M818.69,693.41c-10.45-114.84-105.35-193.55-140.37-218.91c-5.38-3.9-12.91-0.03-12.91,6.61v139.47
			c-10.84-0.86-22.23-1.21-34.2-0.99c-160.99,3.01-283.98,2.31-354.72,1.33c-38.59-0.53-68.68,33.59-62.93,71.75
			c11.04,73.2,45.46,177.84,151.36,198.09c166.13,31.76,280.95,12.22,280.95,12.22l116.42-17.36l115.67-4.63
			C877.96,880.98,884.02,770.72,818.69,693.41z"/>
		<path class="st8" d="M338.63,621.54c-23.79-0.16-44.58-0.38-62.14-0.62c-38.59-0.53-68.68,33.59-62.93,71.75
			c3.47,23.05,9.27,49.21,18.88,74.87C265.47,752.96,321.33,714.95,338.63,621.54z"/>
		<path class="st7" d="M565.25,1256.9c11.18,59.16,46.65,141.99,157.43,146.16h79.34"/>
		<path class="st4" d="M1552.18,1092.22c0,0,144.18,352.67,331.44,402.34C1883.62,1494.57,1899.09,1092.22,1552.18,1092.22z"/>
		<path class="st4" d="M1407.68,1422.02c0,0-276.06-23.21-276.06,92.83c0,116.04,156.35,94.06,296.83,92.83
			c140.47-1.22,238.51,9.58,234.53-99.47C1659.18,1404.08,1407.68,1422.02,1407.68,1422.02z"/>
		<circle class="st0" cx="602.23" cy="752.79" r="52.59"/>
		<path class="st8" d="M580.06,752.79c0,25.37,20.56,45.93,45.93,45.93c0.65,0,1.29-0.02,1.94-0.05
			c16.05-9.01,26.9-26.17,26.9-45.88c0-19.71-10.85-36.88-26.9-45.88c-0.64-0.03-1.29-0.05-1.94-0.05
			C600.62,706.86,580.06,727.43,580.06,752.79z"/>
		<path class="st4" d="M539.78,689.61c0,0,28.91,66.14,135.41,66.14c101.23,0-35.2-85.69-35.2-85.69L539.78,689.61z"/>
		<path class="st88" d="M539.78,689.61c0,0,28.91,66.14,135.41,66.14"/>
		<path class="st1" d="M537.07,1019.68c0,0-63.01-23.39-86.47,54.55s31.55,93.5,31.55,93.5s58.89,21.04,81.68-55.51
			C587.51,1032.72,537.07,1019.68,537.07,1019.68z"/>
		<path class="st5" d="M685.49,874.71c0,26.62-13.73,37.79-30.67,37.79s-30.67-11.17-30.67-37.79s30.67-58.6,30.67-58.6
			S685.49,848.1,685.49,874.71z"/>
		<path class="st7" d="M387.92,1530.61c0,0-25.24-114.41,130.29-114.41"/>
		<path class="st1" d="M542.15,923.06l-1.44,94.69c0,0,138.95,9.84,233.27-16.33C901.84,965.95,945,928.05,945,928.05l-45.06-84.93
			C899.94,843.12,775.6,936.56,542.15,923.06z"/>
		<path class="st12" d="M545.48,1101.77c19.77-64.98,2.83-76.45-11.04-82.9c-12.16-3.38-63.24-13.06-83.84,55.37
			c-11.81,39.22-3.74,62.64,7.19,76.24l0,0C507.47,1172.28,533.82,1140.09,545.48,1101.77z"/>
		
			<ellipse transform="matrix(0.3157 -0.9489 0.9489 0.3157 -594.3176 1193.6588)" class="st47" cx="530.41" cy="1008.87" rx="22.12" ry="16.82"/>
		<path class="st6" d="M1731.38,1387.93c45.23,50.74,96.85,91.94,152.23,106.64c0,0,7.13-185.5-96.89-304.59
			C1762.74,1228.41,1720.19,1309.66,1731.38,1387.93z"/>
	</g>
	<path class="st0" d="M1172.83,1598.89c0,0,194.09-46.42,255.05,1.17c60.96,47.59,44.25,42.33,132.75,51.24
		c56.16,5.66,88.78,67.89,7.76,87.97c-79.53,19.71-57.58,52.04-154.81,114.05c-55.37,35.31-188.21,80.17-283.16,52.55
		c-30.04-8.74-60.17-37.03-30.04-91.93c56.72-103.32-270.46-31.09-337.63-75.57c-71.36-47.25,24.61-97.43,188.07-123.36
		S1172.83,1598.89,1172.83,1598.89z"/>
	<line class="st75" x1="231.57" y1="1612.96" x2="1768.43" y2="1612.96"/>
	<path class="st1" d="M383.49,396.59c0,0-8.92,47.6-9.69,48.78c-0.78,1.18-33.35,11.41-33.35,11.41s31.8,8.65,32.57,9.83
		s10.47,50.35,10.47,50.35s13.18-47.6,15.12-49.57c1.94-1.97,33.73-7.08,33.73-7.08s-31.8-11.02-33.35-13.38
		C397.45,444.58,383.49,396.59,383.49,396.59z"/>
	<path class="st1" d="M1660.07,914.44c0,0-8.92,47.6-9.69,48.78s-33.35,11.41-33.35,11.41s31.8,8.65,32.57,9.83
		c0.78,1.18,10.47,50.35,10.47,50.35s13.18-47.6,15.12-49.57c1.94-1.97,33.73-7.08,33.73-7.08s-31.8-11.02-33.35-13.38
		S1660.07,914.44,1660.07,914.44z"/>
	<path class="st1" d="M248.95,282.6c0,0,7.78,33.98,8.35,34.85c0.57,0.87,24.64,7.24,24.64,7.24s-23.49,7.59-24.06,8.46
		s-9.52,35.42-9.52,35.42s-7.95-33.38-9.39-34.83c-1.43-1.45-26.12-9.32-26.12-9.32s25.28-5.24,26.43-6.99
		C240.42,315.67,248.95,282.6,248.95,282.6z"/>
	<path class="st1" d="M1838.16,822.27c0,0,7.78,33.98,8.35,34.85c0.57,0.87,24.64,7.24,24.64,7.24s-23.49,7.59-24.06,8.46
		c-0.57,0.87-9.52,35.42-9.52,35.42s-7.95-33.38-9.39-34.83c-1.43-1.45-26.12-9.32-26.12-9.32s25.28-5.24,26.43-6.99
		C1829.64,855.35,1838.16,822.27,1838.16,822.27z"/>
	<path class="st5" d="M638.54,1433.92l18.23,94.21c18.84,97.32,99.04,170.98,197.63,181.31c62.49,6.55,136.06,11.94,208.99,11.94
		c73,0,145.71-5.4,207.1-11.96c96.51-10.31,175.53-81.36,196.15-176.2l21.6-99.31H638.54z"/>
	<g>
		<path class="st2" d="M640.21,1432.24c0.03,0.01,0.06,0.01,0.08,0.02c0.16,0.03,0.32,0.07,0.5,0.1c0.06,0.01,0.12,0.02,0.18,0.04
			c0.13,0.03,0.26,0.05,0.39,0.08c0.15,0.03,0.31,0.06,0.47,0.1c0.04,0.01,0.09,0.02,0.13,0.03c0.19,0.04,0.39,0.08,0.61,0.12
			c0.12,0.02,0.24,0.05,0.37,0.07c0.14,0.03,0.28,0.06,0.42,0.09c0.13,0.03,0.26,0.05,0.4,0.08c0.19,0.04,0.38,0.08,0.58,0.12
			c0.87,0.18,1.84,0.37,2.9,0.59c0.14,0.03,0.27,0.05,0.41,0.08c0.81,0.16,1.66,0.33,2.57,0.52c0.12,0.02,0.25,0.05,0.37,0.07
			c0.34,0.07,0.69,0.14,1.05,0.21c0.11,0.02,0.23,0.05,0.34,0.07c0.89,0.18,1.82,0.36,2.79,0.56c0.14,0.03,0.29,0.06,0.44,0.09
			c0.35,0.07,0.7,0.14,1.06,0.21c0.28,0.06,0.57,0.11,0.86,0.17c0.3,0.06,0.6,0.12,0.91,0.18c0.21,0.04,0.42,0.08,0.63,0.13
			c0.4,0.08,0.8,0.16,1.21,0.24c0.25,0.05,0.5,0.1,0.75,0.15c0.3,0.06,0.6,0.12,0.9,0.18c0.36,0.07,0.73,0.14,1.1,0.22
			c0.25,0.05,0.51,0.1,0.76,0.15c0.41,0.08,0.82,0.16,1.24,0.24c0.21,0.04,0.42,0.08,0.63,0.12c0.44,0.09,0.89,0.17,1.34,0.26
			c0.24,0.05,0.47,0.09,0.71,0.14c0.45,0.09,0.9,0.17,1.35,0.26c0.25,0.05,0.5,0.1,0.75,0.15c0.46,0.09,0.91,0.18,1.37,0.27
			c0.28,0.05,0.56,0.11,0.84,0.16c0.43,0.08,0.86,0.17,1.3,0.25c0.32,0.06,0.64,0.12,0.96,0.18c0.45,0.09,0.9,0.17,1.36,0.26
			c0.19,0.04,0.39,0.07,0.58,0.11c78.6,15.1,264.21,48.04,387.56,48.04c237.13,0,417.66-53.29,424.61-55.37
			c0.14-0.04,0.23-0.07,0.23-0.07s-83.32-24.94-197.45-43.65c-11.41-1.87-23.14-3.68-35.11-5.39
			c-59.89-8.57-126.17-14.81-192.28-14.81l0,0l0,0c-52.89,0-105.89,3.99-155.63,9.98c-3.11,0.37-6.21,0.76-9.29,1.15
			c-12.33,1.56-24.45,3.23-36.29,4.99c-8.88,1.32-17.62,2.69-26.18,4.09c-11.41,1.87-22.52,3.8-33.26,5.77
			c-37.61,6.87-70.79,14.13-97.31,20.43c-7.58,1.8-14.61,3.52-21.04,5.14c-1.61,0.4-3.18,0.8-4.71,1.19
			c-3.07,0.78-5.98,1.53-8.74,2.24c-20.66,5.37-32.38,8.88-32.38,8.88s0.14,0.03,0.41,0.08c0.02,0,0.05,0.01,0.08,0.02
			C639.3,1432.05,639.7,1432.13,640.21,1432.24z"/>
		<path class="st12" d="M1255.67,1452.63c-59.89-8.57-126.17-14.81-192.28-14.81c-52.89,0-105.89,3.99-155.63,9.98
			c-3.11,0.37-6.21,0.76-9.29,1.15c-12.33,1.56-24.45,3.23-36.29,4.99c-8.88,1.32-17.62,2.69-26.18,4.09
			c-9.01,1.48-17.81,2.99-26.41,4.53c82.51,12.81,179.46,24.78,253.81,24.78c103.96,0,197.04-10.24,269.39-21.92
			c-13.43-2.52-27.46-5-41.99-7.38C1279.37,1456.15,1267.65,1454.35,1255.67,1452.63z"/>
	</g>
	<g>
		<circle class="st2" cx="1063.75" cy="1627.1" r="48.73"/>
		<ellipse class="st2" cx="1063.71" cy="1538.35" rx="20.67" ry="27.88"/>
		
			<ellipse transform="matrix(0.5383 -0.8428 0.8428 0.5383 -799.7695 1688.0057)" class="st2" cx="1140.6" cy="1573.88" rx="33.66" ry="24.95"/>
		
			<ellipse transform="matrix(0.8428 -0.5383 0.5383 0.8428 -692.0648 777.762)" class="st2" cx="985.35" cy="1573.56" rx="25.01" ry="33.74"/>
	</g>
	<g class="st54">
		<g>
			<path class="st89" d="M914.91,1478.77c1.9-0.5,3.83-1.02,5.8-1.53"/>
			<path class="st90" d="M932.22,1474.24c85.37-21.98,224.7-52.41,346.31-53.89"/>
			<path class="st89" d="M1284.49,1420.3c2-0.01,4-0.01,6,0c0.09,0.67,0.17,1.33,0.28,2c0.22,1.32,0.48,2.62,0.77,3.91"/>
			<path class="st91" d="M1295.18,1437.69c12.4,30.07,44.31,48.68,77.74,43.05c38.82-6.55,64.99-43.32,58.44-82.15
				c-4.43-26.26-22.69-46.73-46.07-55.19"/>
			<path class="st89" d="M1379.57,1341.59c-1.92-0.52-3.88-0.96-5.85-1.31c1.75-0.98,3.45-2.04,5.1-3.16"/>
			<path class="st92" d="M1388.21,1329.49c16.36-15.78,24.9-39.09,20.84-63.19c-6.55-38.82-43.33-64.99-82.15-58.44
				c-36.02,6.07-61.14,38.17-59.35,73.78"/>
			<path class="st89" d="M1268.11,1287.68c0.1,0.77,0.22,1.54,0.35,2.32c0.2,1.21,0.44,2.4,0.7,3.59c-1.88,0.66-3.77,1.32-5.67,1.97
				"/>
			<path class="st93" d="M1251.89,1299.42c-150.92,49.02-343.79,62.06-403.5,65.03"/>
			<path class="st89" d="M842.29,1364.75c-2.31,0.11-4.31,0.19-5.99,0.26c-0.1-0.69-0.18-1.39-0.3-2.08
				c-0.22-1.29-0.47-2.57-0.75-3.83"/>
			<path class="st94" d="M831.63,1347.6c-12.38-30.11-44.32-48.76-77.77-43.12c-38.82,6.55-64.99,43.32-58.44,82.15
				c4.43,26.26,22.69,46.73,46.06,55.19"/>
			<path class="st89" d="M747.2,1443.63c1.92,0.52,3.88,0.96,5.85,1.31"/>
		</g>
	</g>
	<path class="st72" d="M1272.04,858.29h219.71c4.26,0,8.46-1.1,12.14-3.24c7.36-4.28,17.19-13.29,13.53-29.91
		c-4.87-22.12-22.9-22.84-27.72-22.63c-0.66,0.03-1.21-0.47-1.25-1.12c-0.39-5.85-3.43-31.19-26.72-38.73
		c-18.02-5.83-38.81,1.61-47.34,16.73c-0.48,0.84-1.68,0.83-2.12-0.03c-4.47-8.74-24.58-39.79-77.38-20.85
		c-31.57,11.33-37.43,41.72-38.32,48.1c-0.09,0.65-0.68,1.11-1.34,1.03c-6.14-0.72-34.3-2.95-44.54,14.74
		C1241.44,838.33,1253.6,858.29,1272.04,858.29z"/>
	<path class="st72" d="M904.2,455.09h219.71c4.26,0,8.46-1.1,12.14-3.24c7.36-4.28,17.19-13.29,13.53-29.91
		c-4.87-22.12-22.9-22.84-27.72-22.63c-0.66,0.03-1.21-0.47-1.25-1.12c-0.39-5.86-3.43-31.19-26.72-38.73
		c-18.02-5.83-38.81,1.61-47.34,16.73c-0.48,0.84-1.68,0.83-2.12-0.03c-4.47-8.74-24.58-39.79-77.38-20.85
		c-31.57,11.33-37.43,41.72-38.32,48.1c-0.09,0.65-0.68,1.11-1.34,1.03c-6.14-0.72-34.3-2.95-44.54,14.74
		C873.6,435.13,885.77,455.09,904.2,455.09z"/>
	<path class="st72" d="M1810.24,605.92h-328.75c-6.38,0-12.65-1.65-18.16-4.85c-11.01-6.4-25.72-19.89-20.25-44.75
		c7.28-33.1,34.26-34.18,41.48-33.86c0.98,0.04,1.81-0.7,1.87-1.68c0.59-8.76,5.14-46.67,39.98-57.95
		c26.97-8.72,58.07,2.41,70.84,25.03c0.71,1.26,2.52,1.25,3.18-0.04c6.69-13.08,36.78-59.54,115.79-31.2
		c47.24,16.95,56.01,62.42,57.34,71.97c0.14,0.97,1.02,1.66,2,1.54c9.19-1.07,51.32-4.42,66.64,22.06
		C1856.02,576.06,1837.83,605.92,1810.24,605.92z"/>
	<path class="st0" d="M416.74,1705.77c-3.27-2.93-7.32-4.82-11.62-5.71c-15.8-3.3-75.93-13.98-87.39,11.46
		c-12.31,27.32,49.55,41.59,84.15,30.31C430.17,1732.6,425.98,1714.04,416.74,1705.77z"/>
	<path class="st0" d="M623.23,1753.66c-5.96-4.88-13.22-7.89-20.82-9.13c-27.99-4.57-134.32-18.72-152.49,26.8
		c-19.5,48.89,90.15,69.2,150.01,46.74C648.85,1799.72,640.06,1767.46,623.23,1753.66z"/>
</g>
<g id="_x30_4">
</g>
<g id="_x30_3">
</g>
<g id="_x30_2">
</g>
<g id="_x30_1">
</g>
</svg>
