<?xml version="1.0" encoding="utf-8"?>
<!-- Generator: Adobe Illustrator 23.0.1, SVG Export Plug-In . SVG Version: 6.00 Build 0)  -->
<svg version="1.1" xmlns="http://www.w3.org/2000/svg" xmlns:xlink="http://www.w3.org/1999/xlink" x="0px" y="0px"
	 viewBox="0 0 2000 2000" style="enable-background:new 0 0 2000 2000;" xml:space="preserve">
<style type="text/css">
	.st0{fill:#FBF7F4;}
	.st1{fill:#E8C481;}
	.st2{fill:#B1BBAB;}
	.st3{fill:#C88C7C;}
	.st4{fill:#9C685D;}
	.st5{fill:#C8D2C6;}
	.st6{fill:#774D46;}
	.st7{fill:none;stroke:#3B3630;stroke-width:2;stroke-linecap:round;stroke-linejoin:round;stroke-miterlimit:10;}
	.st8{fill:#3B3630;}
	.st9{fill:none;stroke:#3B3630;stroke-linecap:round;stroke-linejoin:round;stroke-miterlimit:10;}
	.st10{fill:#F3D2A6;}
	.st11{fill:#B55046;}
	.st12{fill:#F6E8D2;}
	.st13{fill:#C8AF95;}
	.st14{fill:none;stroke:#C8AF95;stroke-width:2;stroke-miterlimit:10;stroke-dasharray:20;}
	.st15{fill:none;stroke:#B55046;stroke-width:10;stroke-linecap:round;stroke-linejoin:round;stroke-miterlimit:10;}
	.st16{fill:none;stroke:#C88C7C;stroke-width:4;stroke-miterlimit:10;}
	.st17{fill:none;stroke:#C88C7C;stroke-width:10;stroke-miterlimit:10;}
	.st18{opacity:0.59;}
	.st19{fill:none;stroke:#B55046;stroke-width:2;stroke-miterlimit:10;}
	.st20{fill:none;stroke:#B55046;stroke-width:2;stroke-miterlimit:10;stroke-dasharray:21.1473,21.1473;}
	.st21{fill:none;stroke:#B55046;stroke-width:2;stroke-miterlimit:10;stroke-dasharray:22.1753,22.1753;}
	.st22{fill:none;stroke:#B55046;stroke-width:2;stroke-miterlimit:10;stroke-dasharray:24.2983,24.2983;}
	.st23{fill:none;stroke:#B55046;stroke-width:2;stroke-miterlimit:10;stroke-dasharray:18.1581,18.1581;}
	.st24{fill:none;stroke:#B55046;stroke-width:2;stroke-miterlimit:10;stroke-dasharray:20.1047,20.1047;}
	.st25{fill:none;stroke:#B55046;stroke-width:2;stroke-miterlimit:10;stroke-dasharray:19.0183,19.0183;}
	.st26{fill:none;stroke:#B55046;stroke-width:2;stroke-miterlimit:10;stroke-dasharray:20.0672,20.0672;}
	.st27{fill:none;stroke:#B55046;stroke-width:2;stroke-miterlimit:10;stroke-dasharray:20.4888,20.4888;}
	.st28{fill:none;stroke:#B55046;stroke-width:2;stroke-miterlimit:10;stroke-dasharray:19.7985,19.7985;}
	.st29{fill:none;stroke:#9C685D;stroke-width:6;stroke-linejoin:bevel;stroke-miterlimit:10;}
	.st30{fill:none;stroke:#9C685D;stroke-width:4;stroke-linejoin:round;stroke-miterlimit:10;}
	.st31{fill:none;stroke:#3B3630;stroke-width:2;stroke-miterlimit:10;}
	.st32{fill:none;stroke:#3B3630;stroke-width:4;stroke-linecap:round;stroke-linejoin:round;stroke-miterlimit:10;}
	.st33{fill:none;stroke:#9C685D;stroke-width:2;stroke-linecap:round;stroke-linejoin:round;stroke-miterlimit:10;}
	.st34{fill:none;stroke:#9C685D;stroke-width:2;stroke-linejoin:round;stroke-miterlimit:10;}
	.st35{fill:none;stroke:#774D46;stroke-linecap:round;stroke-linejoin:round;stroke-miterlimit:10;}
	.st36{fill:#2B2326;}
	.st37{fill:none;stroke:#231F20;stroke-linecap:round;stroke-linejoin:round;stroke-miterlimit:10;}
	.st38{fill:none;stroke:#B55046;stroke-width:2;stroke-miterlimit:10;stroke-dasharray:20.767,20.767;}
	.st39{fill:none;stroke:#B55046;stroke-width:2;stroke-miterlimit:10;stroke-dasharray:20.297,20.297;}
	.st40{fill:none;stroke:#B55046;stroke-width:2;stroke-miterlimit:10;stroke-dasharray:19.6424,19.6424;}
	.st41{fill:none;stroke:#B55046;stroke-width:2;stroke-miterlimit:10;stroke-dasharray:19.3519,19.3519;}
	.st42{fill:none;stroke:#B55046;stroke-width:2;stroke-miterlimit:10;stroke-dasharray:20.2725,20.2725;}
	.st43{fill:none;stroke:#3C2415;stroke-width:2;stroke-miterlimit:10;}
	.st44{fill:none;stroke:#3C2415;stroke-width:4;stroke-linecap:round;stroke-linejoin:round;stroke-miterlimit:10;}
	.st45{fill:#3C2415;}
	.st46{fill:#594A42;}
	.st47{fill:#F59C6F;}
	.st48{fill:#A26C60;}
	.st49{fill:none;stroke:#C88C7C;stroke-width:4;stroke-linecap:round;stroke-linejoin:round;stroke-miterlimit:10;}
	.st50{fill:none;stroke:#E9D0CB;stroke-width:6;stroke-miterlimit:10;}
	.st51{fill:none;stroke:#B1BBAB;stroke-width:6;stroke-linecap:round;stroke-linejoin:round;stroke-miterlimit:10;}
	.st52{fill:none;stroke:#E8C481;stroke-linecap:round;stroke-linejoin:round;stroke-miterlimit:10;}
	.st53{fill:none;stroke:#C88C7C;stroke-width:2;stroke-linecap:round;stroke-linejoin:round;stroke-miterlimit:10;}
	.st54{opacity:0.6;}
	.st55{fill:none;stroke:#FBF7F4;stroke-width:2;stroke-linecap:round;stroke-linejoin:round;}
	.st56{fill:none;stroke:#FBF7F4;stroke-width:2;stroke-linecap:round;stroke-linejoin:round;stroke-dasharray:19.2321,19.2321;}
	.st57{fill:none;stroke:#FBF7F4;stroke-width:2;stroke-linecap:round;stroke-linejoin:round;stroke-dasharray:19.1211,19.1211;}
	.st58{fill:none;stroke:#FBF7F4;stroke-width:2;stroke-linecap:round;stroke-linejoin:round;stroke-dasharray:12.2792,12.2792;}
	.st59{fill:none;stroke:#FBF7F4;stroke-width:2;stroke-linecap:round;stroke-linejoin:round;stroke-dasharray:13.653,13.653;}
	.st60{fill:none;stroke:#FBF7F4;stroke-width:2;stroke-linecap:round;stroke-linejoin:round;stroke-dasharray:19.4864,19.4864;}
	.st61{fill:none;stroke:#FBF7F4;stroke-width:2;stroke-linecap:round;stroke-linejoin:round;stroke-dasharray:18.6546,18.6546;}
	.st62{fill:none;stroke:#FBF7F4;stroke-width:2;stroke-linecap:round;stroke-linejoin:round;stroke-dasharray:18.7672,18.7672;}
	.st63{fill:none;stroke:#FBF7F4;stroke-width:2;stroke-linecap:round;stroke-linejoin:round;stroke-dasharray:21.2841,21.2841;}
	.st64{fill:none;stroke:#FBF7F4;stroke-width:2;stroke-linecap:round;stroke-linejoin:round;stroke-dasharray:24.9845,24.9845;}
	.st65{fill:none;stroke:#FBF7F4;stroke-width:2;stroke-linecap:round;stroke-linejoin:round;stroke-dasharray:14.1347,14.1347;}
	.st66{fill:none;stroke:#FBF7F4;stroke-width:2;stroke-linecap:round;stroke-linejoin:round;stroke-dasharray:20.1378,20.1378;}
	.st67{fill:none;stroke:#FBF7F4;stroke-width:2;stroke-linecap:round;stroke-linejoin:round;stroke-dasharray:21.976,21.976;}
	.st68{fill:none;stroke:#FBF7F4;stroke-width:2;stroke-linecap:round;stroke-linejoin:round;stroke-dasharray:21.826,21.826;}
	.st69{fill:none;stroke:#FBF7F4;stroke-width:2;stroke-linecap:round;stroke-linejoin:round;stroke-dasharray:24.0717,24.0717;}
	
		.st70{opacity:0.6;fill:none;stroke:#FBF7F4;stroke-width:2;stroke-linecap:round;stroke-linejoin:round;stroke-miterlimit:10;stroke-dasharray:20;}
	.st71{fill:none;stroke:#F3D2A6;stroke-width:3;stroke-miterlimit:10;stroke-dasharray:12;}
	.st72{fill:none;stroke:#E9D0CB;stroke-width:4;stroke-miterlimit:10;}
	.st73{fill:none;stroke:#3B3630;stroke-width:3;stroke-linecap:round;stroke-linejoin:round;stroke-miterlimit:10;}
	
		.st74{fill:none;stroke:#F6E8D2;stroke-width:4;stroke-linecap:round;stroke-linejoin:round;stroke-miterlimit:10;stroke-dasharray:20;}
	.st75{fill:none;stroke:#3B3630;stroke-width:10;stroke-linecap:round;stroke-linejoin:round;stroke-miterlimit:10;}
	.st76{fill:#949B8F;}
	.st77{fill:none;stroke:#FBF7F4;stroke-width:4;stroke-linecap:round;stroke-linejoin:round;}
	.st78{fill:none;stroke:#FBF7F4;stroke-width:4;stroke-linecap:round;stroke-linejoin:round;stroke-dasharray:19.5394,19.5394;}
	.st79{fill:none;stroke:#FBF7F4;stroke-width:4;stroke-linecap:round;stroke-linejoin:round;stroke-dasharray:22.2978,22.2978;}
	.st80{fill:none;stroke:#FBF7F4;stroke-width:4;stroke-linecap:round;stroke-linejoin:round;stroke-dasharray:25.1819,25.1819;}
	.st81{fill:none;stroke:#FBF7F4;stroke-width:4;stroke-linecap:round;stroke-linejoin:round;stroke-dasharray:19.5294,19.5294;}
	.st82{fill:none;stroke:#FBF7F4;stroke-width:4;stroke-linecap:round;stroke-linejoin:round;stroke-dasharray:18.8621,18.8621;}
	.st83{fill:none;stroke:#FBF7F4;stroke-width:4;stroke-linecap:round;stroke-linejoin:round;stroke-dasharray:12.1397,12.1397;}
	.st84{fill:none;stroke:#FBF7F4;stroke-width:4;stroke-linecap:round;stroke-linejoin:round;stroke-dasharray:16.0387,16.0387;}
	.st85{fill:none;stroke:#FBF7F4;stroke-width:4;stroke-linecap:round;stroke-linejoin:round;stroke-dasharray:20.2534,20.2534;}
	.st86{fill:none;stroke:#FBF7F4;stroke-width:4;stroke-linecap:round;stroke-linejoin:round;stroke-dasharray:19.5395,19.5395;}
	.st87{fill:none;stroke:#3B3630;stroke-width:2;stroke-linejoin:round;stroke-miterlimit:10;}
	.st88{fill:none;stroke:#3B3630;stroke-width:5;stroke-linecap:round;stroke-linejoin:round;stroke-miterlimit:10;}
	.st89{fill:none;stroke:#3B3630;stroke-width:4;stroke-linecap:round;stroke-linejoin:round;}
	.st90{fill:none;stroke:#3B3630;stroke-width:4;stroke-linecap:round;stroke-linejoin:round;stroke-dasharray:11.9064,11.9064;}
	.st91{fill:none;stroke:#3B3630;stroke-width:4;stroke-linecap:round;stroke-linejoin:round;stroke-dasharray:12.0524,12.0524;}
	.st92{fill:none;stroke:#3B3630;stroke-width:4;stroke-linecap:round;stroke-linejoin:round;stroke-dasharray:12.1179,12.1179;}
	.st93{fill:none;stroke:#3B3630;stroke-width:4;stroke-linecap:round;stroke-linejoin:round;stroke-dasharray:12.231,12.231;}
	.st94{fill:none;stroke:#3B3630;stroke-width:4;stroke-linecap:round;stroke-linejoin:round;stroke-dasharray:12.0557,12.0557;}
	.st95{fill:none;stroke:#9C685D;stroke-width:4;stroke-linecap:round;stroke-linejoin:round;stroke-miterlimit:10;}
	.st96{fill:none;stroke:#3B3630;stroke-width:16;stroke-miterlimit:10;}
	.st97{fill:none;stroke:#3B3630;stroke-miterlimit:10;}
	
		.st98{fill:none;stroke:#F59C6F;stroke-width:4;stroke-linecap:round;stroke-linejoin:round;stroke-miterlimit:10;stroke-dasharray:20;}
	.st99{fill:#C49A6C;}
	.st100{opacity:0.48;fill:#F6E8D2;}
	.st101{fill:none;stroke:#B55046;stroke-miterlimit:10;}
	.st102{fill:none;stroke:#B55046;stroke-miterlimit:10;stroke-dasharray:11.968,11.968;}
	.st103{fill:none;stroke:#231F20;stroke-width:2;stroke-linecap:round;stroke-linejoin:round;stroke-miterlimit:10;}
	.st104{fill:#9FAF9E;}
	.st105{opacity:0.5;fill:#F6E8D2;}
	.st106{fill:none;stroke:#F59C6F;stroke-width:2;stroke-linecap:round;stroke-linejoin:round;}
	.st107{fill:none;stroke:#F59C6F;stroke-width:2;stroke-linecap:round;stroke-linejoin:round;stroke-dasharray:22.8786,22.8786;}
	.st108{fill:none;stroke:#F59C6F;stroke-width:2;stroke-linecap:round;stroke-linejoin:round;stroke-dasharray:17.346,17.346;}
	.st109{fill:none;stroke:#F59C6F;stroke-width:2;stroke-linecap:round;stroke-linejoin:round;stroke-dasharray:19.4767,19.4767;}
	.st110{fill:none;stroke:#F59C6F;stroke-width:2;stroke-linecap:round;stroke-linejoin:round;stroke-dasharray:16.9896,16.9896;}
	.st111{fill:none;stroke:#F59C6F;stroke-width:2;stroke-linecap:round;stroke-linejoin:round;stroke-dasharray:20.5872,20.5872;}
	.st112{fill:none;stroke:#F59C6F;stroke-width:2;stroke-linecap:round;stroke-linejoin:round;stroke-dasharray:22.6448,22.6448;}
	.st113{fill:none;stroke:#F59C6F;stroke-width:2;stroke-linecap:round;stroke-linejoin:round;stroke-dasharray:20.3178,20.3178;}
	.st114{fill:none;stroke:#F59C6F;stroke-width:2;stroke-linecap:round;stroke-linejoin:round;stroke-dasharray:18.0193,18.0193;}
	.st115{fill:none;stroke:#F59C6F;stroke-width:2;stroke-linecap:round;stroke-linejoin:round;stroke-dasharray:22.915,22.915;}
	.st116{fill:none;stroke:#F59C6F;stroke-width:2;stroke-linecap:round;stroke-linejoin:round;stroke-dasharray:21.71,21.71;}
	.st117{fill:none;stroke:#F59C6F;stroke-width:2;stroke-linecap:round;stroke-linejoin:round;stroke-dasharray:25.0579,25.0579;}
	.st118{fill:none;stroke:#F59C6F;stroke-width:2;stroke-linecap:round;stroke-linejoin:round;stroke-dasharray:20.0432,20.0432;}
	.st119{fill:#BAA695;}
</style>
<g id="_x31_2">
</g>
<g id="_x31_1">
</g>
<g id="_x31_0">
</g>
<g id="_x30_9">
</g>
<g id="_x30_8">
</g>
<g id="_x30_7">
</g>
<g id="_x30_6">
</g>
<g id="_x30_5">
</g>
<g id="_x30_4">
</g>
<g id="_x30_3">
	<path class="st0" d="M1564.11,361.69c12.11-119.55-58.18-178.47-140.05-224.5c-54.41-30.59-142.46-40.82-221.32-5.39
		c-200.35,90-228.72,345.92-434.29,387.3c-205.57,41.38-502.97-132.26-658.33,27.83C10.66,649.4,1.58,883.39,279.6,980.47
		s218.95,280.57,248.32,394.54c29.37,113.97,189.21,250.02,419.74,105.49s379.85-136.13,515.37-151.6
		c135.52-15.47,243.17-198.87,125.98-370.08s-84.12-345.52-50.01-437.6C1549.9,491.81,1559.29,409.21,1564.11,361.69z"/>
	<polygon class="st11" points="794.96,1033.01 794.96,1557.02 1460.07,1557.02 1460.07,1037 	"/>
	<g>
		<g>
			<path class="st6" d="M775.38,607.3V396.48c0-7.68,8.7-12.14,14.92-7.64c40.47,29.3,150.13,120.26,162.2,252.96
				C967.34,804.91,775.38,607.3,775.38,607.3z"/>
			<path class="st4" d="M1108.27,908.92c-39.86-61.51-33.01-110.5-36.98-183.69c-1.53-28.29-3.77-57.21-7.03-83.43
				c-12.07-132.7-121.72-223.65-162.2-252.95c-6.22-4.5-14.92-0.04-14.92,7.64l0,161.16c-12.53-1-25.69-1.4-39.52-1.14
				c-186.02,3.48-328.14,2.67-409.88,1.54c-44.59-0.62-79.36,38.82-72.71,82.91c12.75,84.59,52.53,205.5,174.9,228.89
				c54,10.32,103.31,15.96,146.29,18.72c-21.94,56.05-56.49,163.24-57.85,285.21c-1.99,179.22,569.51,47.79,569.51,47.79
				S1177.97,1016.45,1108.27,908.92z"/>
			<path class="st8" d="M509.54,558.75c-27.49-0.18-51.51-0.44-71.8-0.72c-44.59-0.62-79.36,38.82-72.71,82.91
				c4.01,26.63,10.71,56.86,21.82,86.52C425,710.61,489.56,666.69,509.54,558.75z"/>
			<circle class="st0" cx="814.14" cy="710.42" r="60.77"/>
			<path class="st8" d="M788.52,710.42c0,29.31,23.76,53.08,53.08,53.08c0.75,0,1.49-0.03,2.24-0.06
				c18.54-10.41,31.08-30.24,31.08-53.02c0-22.78-12.54-42.61-31.08-53.02c-0.74-0.03-1.49-0.06-2.24-0.06
				C812.28,657.34,788.52,681.11,788.52,710.42z"/>
			<path class="st4" d="M931.05,710.42c0,0-174.14,33.22-177.68,96.94c-3.53,63.72,149.8,0,149.8,0L931.05,710.42z"/>
			<path class="st9" d="M770.03,775.76c0,0,38.68-37.38,122.25-56.16"/>
			<path class="st9" d="M554.43,871.52c0,0,24.15-18.42,37.1-36.83"/>
			<path class="st6" d="M1100.25,895.6c-30.89-55.49-25.28-102.54-28.96-170.37c-1.53-28.29-3.77-57.21-7.03-83.43
				c-0.2-2.17-0.42-4.33-0.67-6.48c-42.2,26.6-117.57,86.74-98.69,168.06C981.38,874.36,1051.47,892.09,1100.25,895.6z"/>
		</g>
		<path class="st98" d="M661.11,894.19l-8.94,70.83c0,0,254.34,76.74,480.23-47.5l-27.26-73.3
			C1105.13,844.22,930.95,957.35,661.11,894.19z"/>
	</g>
	<line class="st15" x1="221.01" y1="1552.87" x2="1757.88" y2="1552.87"/>
	<g>
		<path class="st2" d="M1311.78,1358.25c30.32-73.19,113.68-234.73,138.89-306.24c25.21-71.51,117.58-134.27,167.47-153.26
			c49.89-19,107.69-57.71,132.99-88.01c10.65-12.75,44.07-20.26,38.29,37.2c-3.69,36.65-35.47,100.99-62.22,148.87l-87.53-22.97
			c0,0,46.47,29.81,71.61,50.62c-8.26,13.91-15,24.55-18.69,29.89c-6.08,8.8-12.2,16.36-18.31,23.04
			c-40.21-23.03-77.22-27.73-91.81-31.97c0,0,41.64,26.2,65.08,56.71c-44.61,35.73-85.93,50.55-108.46,184.94
			c-30.03,179.1-258.55,212.14-258.55,212.14C1246.23,1491.75,1281.47,1431.44,1311.78,1358.25z"/>
		<path class="st9" d="M1729.68,885.15c0,0-151.79,111.89-217.42,215.72c-36.18,57.24-150.73,306.13-189.81,333.64"/>
		<path class="st9" d="M1586.34,1155.9c0,0-66.06-21.3-97.67-12.48"/>
		<path class="st9" d="M1564.11,1194.42c0,0-60.4-20.66-96.42-11.02"/>
		<path class="st9" d="M1610.64,901.8c0,0,13.53,43.91,6.21,78.56"/>
		<path class="st9" d="M1579.14,917.89c0,0,15.76,45.02,8.75,91.53"/>
	</g>
	<g>
		<path class="st37" d="M191.45,1058.34c0,0,300.34,97.28,356.67,384.66"/>
		<path class="st37" d="M221.38,1030.69c-205.04-31.39-100.7,40.15-36.65,91.83c31.82-3.82,64.37-0.42,100.16,11.08
			c1.98,0.64,1.34,3.76-0.69,4.19c-11.89,2.48-41.18,8.72-66.32,15.23c0.54,0.7,1.04,1.38,1.49,2.05
			c29.18,43.1,185.81,385.6,363.41,310.29C582.77,1465.35,561.16,1082.7,221.38,1030.69z"/>
		<path class="st37" d="M243.58,1197.36c0,0,56.06-43.11,149.59-18.48"/>
		<path class="st37" d="M312.81,1055c0,0,36.1,36.86,33.42,86.12"/>
		<path class="st37" d="M376.8,1087.48c0,0,6.43,48.08-3.9,74.14"/>
	</g>
	<g>
		<path class="st5" d="M349.39,1318.85c-11.73-3.09-23.1-5.82-34.12-8.22l-7.51,30.72l-14.17-35.11
			c-129.38-24.19-204.74-1.09-217.15,21.58c-14.1,25.75,148.46,67.77,148.46,67.77s0.61,0.34,1.77,0.99
			c15.56-10.48,44.73-29.21,58.69-32.1c0,0-29.5,21.66-44.28,40.09c58.91,32.5,260.89,142.04,306.42,141.67
			C547.5,1546.24,512.91,1361.96,349.39,1318.85z"/>
		<path class="st37" d="M131.06,1324.08c0,0,301.37,1.96,392.05,203.2"/>
		<path class="st37" d="M322.52,1448.46c0,0,44.17-52.69,78.33-52.4"/>
		<path class="st37" d="M355.49,1465.61c0,0,34.42-47.82,68.58-54.65"/>
		<path class="st37" d="M349.33,1319.76c0,0-0.45,20.42,4.58,52.44"/>
	</g>
	<path class="st0" d="M1055.09,1524.13c0,0,230.8-52.13,303.3,1.31c72.49,53.44,52.63,47.53,157.86,57.54
		c66.78,6.35,105.58,76.23,9.22,98.78c-94.58,22.14-68.47,58.44-184.1,128.07c-65.85,39.65-223.81,90.03-336.73,59.01
		c-35.72-9.81-71.56-41.58-35.72-103.23c67.45-116.03-356.48-36.76-401.51-84.85c-45.69-48.79,29.27-109.4,223.65-138.53
		S1055.09,1524.13,1055.09,1524.13z"/>
	<polygon class="st13" points="509.54,1120.37 318.39,1337.17 652.25,1295.02 602.56,1092.37 	"/>
	<polygon class="st99" points="509.54,1640.86 794.96,1553.24 794.96,1033.48 509.54,1120.84 	"/>
	<g>
		<path class="st9" d="M1353.2,1465.2c0,0,265.63-320.19,498.3-387.67"/>
		<path class="st9" d="M1774.39,1134.11c-0.47-0.28-0.2-1,0.34-0.91c20.36,3.33,45.99,12.81,63.22,19.86
			c1.24,0.51,2.67,0.12,3.49-0.94c0-0.01,0.01-0.01,0.01-0.02c20.27-26.38,231.07-135.71-35.01-106.6
			c-69.78,7.63-135.29,36.14-193.98,74.03c4.87,15.88,10.32,38.94,9.18,60.09c0,0-18.16-26.06-34.03-43.22
			c-151.33,107.74-251.41,270.71-251.41,270.71s-125.87,43.03,8.86,82.7c127.82,37.63,384.79-202.34,482.07-319.8
			C1809.72,1155.23,1782.35,1138.78,1774.39,1134.11z"/>
		<path class="st9" d="M1676.41,1166.56c0,0,68.75,7.19,113.79,45.47"/>
		<path class="st9" d="M1645.81,1188.03c0,0,100.71,17.12,117.2,52.68"/>
		<path class="st9" d="M1539,1175.08c0,0,27.38,31.93,26,76.48"/>
	</g>
	<g>
		<path class="st5" d="M1890.37,1333.97c-34.61-13.63-141.38-3.3-189.6-5.81c-37.63-1.95-187.21,0.45-230.25,72.03
			c-31.39,52.2-84.98,87.17-94.24,121.96c-5.49,20.62,12.24,40.05,33.31,36.71c37.15-5.89,116.7-22.85,200.09-68.04
			c64.65-35.03,101.08-62.11,132.54-80.34c2.39-12.57-30.16-40.45-30.16-40.45l56,27.21c15.01-6.49,30.4-10.78,48.94-12.77
			C1883.84,1377.33,1924.99,1347.6,1890.37,1333.97z"/>
		<path class="st9" d="M1385.92,1535.31c0,0,218.3-193.16,422.28-191.16"/>
		<path class="st9" d="M1611.61,1391.23c0,0,55.99,18.19,78.94,51.76"/>
		<path class="st9" d="M1572.26,1410.17c0,0,56.59,20.6,74.37,59.81"/>
	</g>
	<g>
		<polygon class="st12" points="1319.52,246.23 1243.67,317.95 1280.4,214.07 		"/>
		<polygon class="st12" points="1396.3,510.93 1396.91,455.39 1308.86,480.61 		"/>
		<polygon class="st12" points="1049.03,197.32 1039.11,290.27 998.85,213.36 		"/>
	</g>
	<g>
		<path class="st4" d="M1214.95,1221.91c0,0-37.41-363.93,98.72-490.7C1313.67,731.2,1508.78,1064.98,1214.95,1221.91z"/>
		<path class="st6" d="M1232.97,890.39c15.36-63.44,40.44-121.68,80.7-159.18c0,0,89.95,153.89,55.71,301.81
			C1331.69,1011.32,1258.9,961.74,1232.97,890.39z"/>
	</g>
	<g>
		<polygon class="st12" points="509.54,1120.37 509.54,1644.37 1174.65,1644.37 1174.65,1124.35 		"/>
		<polygon class="st13" points="1174.65,1644.37 1460.07,1556.75 1460.07,1037 1174.65,1124.35 		"/>
		<polygon class="st12" points="1174.65,1124.35 1293.71,1376.53 1586.78,1253.18 1460.07,1037 		"/>
		<g>
			<circle class="st10" cx="842.88" cy="1422.52" r="46.79"/>
			<ellipse class="st10" cx="842.83" cy="1337.29" rx="19.84" ry="26.77"/>
			
				<ellipse transform="matrix(0.5383 -0.8428 0.8428 0.5383 -732.5334 1405.7874)" class="st10" cx="916.66" cy="1371.41" rx="32.32" ry="23.96"/>
			
				<ellipse transform="matrix(0.8428 -0.5383 0.5383 0.8428 -617.327 628.7221)" class="st10" cx="767.59" cy="1371.11" rx="24.02" ry="32.4"/>
		</g>
	</g>
	<path class="st0" d="M363.36,1707.82c-3.14-2.81-7.03-4.62-11.15-5.48c-15.17-3.16-72.91-13.43-83.91,11
		c-11.82,26.23,47.58,39.94,80.8,29.1C376.25,1733.58,372.22,1715.76,363.36,1707.82z"/>
	<path class="st0" d="M564.32,1759.43c-5.51-4.93-12.35-8.12-19.59-9.63c-26.65-5.56-128.07-23.59-147.4,19.33
		c-20.76,46.08,83.58,70.16,141.95,51.12C586.97,1804.69,579.89,1773.38,564.32,1759.43z"/>
	<g>
		<path class="st6" d="M529.47,955.38c0,0-69.36,36.51-69.36,117.49s71.69,67.04,71.69,67.04s26.21,77,135.74,30.53
			c0,0,96.01,43.43,124.79-61.07c30.53-110.85-39.01-160.74-91.6-171.92C649.81,926.64,587.88,924.19,529.47,955.38z"/>
		<path class="st9" d="M531.79,1139.91c0,0-22.24-47.85,7.63-102.91"/>
		<path class="st9" d="M667.53,1170.44c0,0-9.29-72.84,0-110.43"/>
	</g>
	<g>
		<path class="st6" d="M971.54,948.75c0,0-105.54-0.57-139.82,59.74c-36.45,64.12-23.9,169.92,69.91,160.63
			c0,0,61.94,63.61,117.7,0.61c0,0,49.41,33.49,92.93,0.72c53.76-40.49,44.02-149.53,0-184.53
			C1060.48,944.76,971.54,948.75,971.54,948.75z"/>
		<path class="st9" d="M901.63,1169.12c0,0-21.03-53.89,0-106.2"/>
		<path class="st9" d="M1019.33,1169.72c0,0,16.81-20.72,7.52-101.46"/>
	</g>
	<path class="st1" d="M137.18,483.16c0,0,6.42,28.05,6.9,28.77c0.47,0.72,20.34,5.98,20.34,5.98s-19.4,6.26-19.87,6.98
		s-7.86,29.24-7.86,29.24s-6.57-27.56-7.75-28.76c-1.18-1.2-21.56-7.69-21.56-7.69s20.87-4.33,21.82-5.77
		C130.14,510.47,137.18,483.16,137.18,483.16z"/>
	<path class="st1" d="M241.18,584.18c0,0-7.36,39.3-8,40.28s-27.53,9.42-27.53,9.42s26.25,7.15,26.89,8.12s8.64,41.58,8.64,41.58
		s10.89-39.3,12.49-40.93c1.6-1.62,27.85-5.85,27.85-5.85s-26.25-9.09-27.53-11.04C252.71,623.8,241.18,584.18,241.18,584.18z"/>
	<path class="st1" d="M1212.65,613.47c0,0,7.36,39.3,8,40.28c0.64,0.97,27.53,9.42,27.53,9.42s-26.25,7.15-26.89,8.12
		c-0.64,0.97-8.64,41.58-8.64,41.58s-10.89-39.3-12.49-40.93c-1.6-1.62-27.85-5.85-27.85-5.85s26.25-9.1,27.53-11.04
		C1201.12,653.1,1212.65,613.47,1212.65,613.47z"/>
</g>
<g id="_x30_2">
</g>
<g id="_x30_1">
</g>
</svg>
